<?xml version="1.0" encoding="UTF-8" standalone="no"?>
<svg
   xmlns:dc="http://purl.org/dc/elements/1.1/"
   xmlns:cc="http://creativecommons.org/ns#"
   xmlns:rdf="http://www.w3.org/1999/02/22-rdf-syntax-ns#"
   xmlns:svg="http://www.w3.org/2000/svg"
   xmlns="http://www.w3.org/2000/svg"
   xmlns:sodipodi="http://sodipodi.sourceforge.net/DTD/sodipodi-0.dtd"
   xmlns:inkscape="http://www.inkscape.org/namespaces/inkscape"
   width="24"
   height="24"
   version="1.1"
   id="svg945"
   sodipodi:docname="config.svg"
   inkscape:version="1.0.2 (e86c870879, 2021-01-15, custom)"
   inkscape:export-filename="/home/kyoz/Documents/Github/loz/src/assets/icons/toolbar/config.png"
   inkscape:export-xdpi="256"
   inkscape:export-ydpi="256">
  <metadata
     id="metadata951">
    <rdf:RDF>
      <cc:Work
         rdf:about="">
        <dc:format>image/svg+xml</dc:format>
        <dc:type
           rdf:resource="http://purl.org/dc/dcmitype/StillImage" />
      </cc:Work>
    </rdf:RDF>
  </metadata>
  <defs
     id="defs949" />
  <sodipodi:namedview
     pagecolor="#ffffff"
     bordercolor="#666666"
     borderopacity="1"
     objecttolerance="10"
     gridtolerance="10"
     guidetolerance="10"
     inkscape:pageopacity="0"
     inkscape:pageshadow="2"
     inkscape:window-width="1902"
     inkscape:window-height="1041"
     id="namedview947"
     showgrid="false"
     inkscape:snap-bbox="true"
     inkscape:bbox-paths="true"
     inkscape:bbox-nodes="true"
     inkscape:snap-bbox-edge-midpoints="true"
     inkscape:snap-bbox-midpoints="true"
     inkscape:object-paths="true"
     inkscape:snap-intersection-paths="true"
     inkscape:snap-midpoints="true"
     inkscape:snap-smooth-nodes="true"
     inkscape:snap-object-midpoints="true"
     inkscape:snap-center="true"
     inkscape:snap-text-baseline="true"
     inkscape:snap-page="true"
     inkscape:zoom="24.866588"
     inkscape:cx="9.3733756"
     inkscape:cy="13.919909"
     inkscape:window-x="8"
     inkscape:window-y="29"
     inkscape:window-maximized="0"
     inkscape:current-layer="svg945" />
  <path
     d="M12 1c-.268 0-.534.01-.797.027-.763.055-1.345.618-1.512 1.305l-.351 1.45c-.02.077-.092.172-.227.22a8.45 8.45 0 0 0-.726.303c-.13.06-.248.044-.317.002L6.797 3.53c-.604-.368-1.412-.354-1.99.147-.403.348-.78.727-1.13 1.129-.5.579-.514 1.387-.146 1.99l.776 1.273c.042.07.059.187-.002.317a8.101 8.101 0 0 0-.301.726c-.05.135-.145.208-.223.227l-1.449.351c-.687.167-1.25.75-1.305 1.512a11.149 11.149 0 0 0 0 1.594c.055.763.618 1.345 1.305 1.512l1.45.351c.077.02.172.092.22.227.09.248.19.49.303.728.06.13.044.246.002.315l-.776 1.273c-.368.604-.354 1.412.147 1.99.348.403.727.78 1.129 1.13.579.5 1.387.514 1.99.146l1.273-.776c.07-.042.187-.059.317.002.237.112.478.212.726.301.135.05.208.145.227.223l.351 1.449c.167.687.75 1.249 1.512 1.303a11.125 11.125 0 0 0 1.594 0c.763-.054 1.345-.616 1.512-1.303l.351-1.45c.02-.077.092-.172.227-.22.248-.09.49-.19.728-.303.13-.06.246-.044.315-.002l1.273.776c.604.368 1.412.354 1.99-.147.403-.348.78-.727 1.13-1.129.5-.579.514-1.387.146-1.99l-.776-1.273c-.042-.07-.059-.187.002-.317.112-.237.212-.478.301-.726.05-.135.145-.208.223-.227l1.449-.351c.687-.167 1.249-.75 1.303-1.512a11.125 11.125 0 0 0 0-1.594c-.054-.763-.616-1.345-1.303-1.512l-1.45-.351c-.077-.02-.172-.092-.22-.227a8.469 8.469 0 0 0-.303-.726c-.06-.13-.044-.248-.002-.317l.776-1.273c.368-.604.354-1.412-.147-1.99a11.14 11.14 0 0 0-1.129-1.13c-.579-.5-1.387-.514-1.99-.146l-1.273.776c-.07.042-.187.059-.317-.002a8.465 8.465 0 0 0-.726-.301c-.135-.05-.208-.145-.227-.223l-.351-1.449c-.167-.687-.75-1.25-1.512-1.305A11.149 11.149 0 0 0 12 1z"
     style="fill:#fff"
     id="path939" />
  <path
     fill="#1e88e5"
     fill-rule="evenodd"
     d="M16 12a4 4 0 1 1-8 0 4 4 0 0 1 8 0zm-1.5 0a2.5 2.5 0 1 1-5 0 2.5 2.5 0 0 1 5 0z"
     id="path941" />
  <path
     fill="#1e88e5"
     fill-rule="evenodd"
     d="m 12.000043,2.6129671e-6 c -0.292364,0 -0.582547,0.010909107033 -0.869456,0.030545497033 C 10.298222,0.09054819 9.6633122,0.70363993 9.4811301,1.4530955 L 9.0971296,3.0349158 C 9.0753114,3.1200069 8.9989477,3.2225525 8.8516747,3.2749162 A 9.2181944,9.2181944 0 0 0 8.0574918,3.6054621 c -0.1418183,0.065455 -0.268364,0.048 -0.3436368,0.00218 L 6.3240349,2.7610973 C 5.6651249,2.3596422 4.7836692,2.3749149 4.1531229,2.9214611 3.7134859,3.301098 3.3022126,3.7134622 2.9214848,4.1520083 2.3760295,4.7836455 2.3596659,5.6651012 2.761121,6.3229203 l 0.8465466,1.390911 c 0.045818,0.075273 0.064364,0.2018185 -0.00218,0.3436368 C 3.4833038,8.3160139 3.3731218,8.5811052 3.2760308,8.851651 3.2214852,8.998924 3.1200306,9.0763786 3.0349395,9.0971059 L 1.4531192,9.4811064 C 0.70366363,9.6632885 0.09057189,10.298198 0.03057181,11.130563 a 12.162562,12.162562 0 0 0 0,1.738912 c 0.06000008,0.832364 0.67309182,1.467274 1.42254739,1.649456 l 1.5818203,0.384001 c 0.085091,0.02182 0.1876367,0.09818 0.2400004,0.245455 0.098182,0.270546 0.2083639,0.535637 0.3305459,0.795274 0.065455,0.140727 0.048,0.267273 0.00218,0.342546 l -0.8465466,1.38982 c -0.4014551,0.65891 -0.3861824,1.540365 0.1603638,2.170912 0.3796369,0.439637 0.7920011,0.85091 1.2305472,1.231638 0.6316372,0.545455 1.5130929,0.561819 2.170912,0.160364 l 1.390911,-0.846547 c 0.075273,-0.04582 0.2018185,-0.06436 0.3436368,0.0022 0.2585458,0.122182 0.5236371,0.232364 0.7941829,0.329455 0.147273,0.05455 0.2247276,0.156 0.2454549,0.241091 l 0.3840005,1.58182 c 0.1821821,0.749456 0.8170917,1.362548 1.6494567,1.421457 a 12.13638,12.13638 0 0 0 1.738911,0 c 0.832365,-0.05891 1.467275,-0.672001 1.649457,-1.421457 l 0.384001,-1.58182 c 0.02182,-0.08509 0.09818,-0.187637 0.245455,-0.24 0.270545,-0.09818 0.535637,-0.208364 0.795273,-0.330546 0.140728,-0.06546 0.267273,-0.048 0.342546,-0.0022 l 1.38982,0.846547 c 0.65891,0.401455 1.540366,0.386182 2.170912,-0.160364 0.439637,-0.379637 0.850911,-0.792001 1.231638,-1.230547 0.545456,-0.631638 0.561819,-1.513093 0.160364,-2.170912 l -0.846546,-1.390911 c -0.04582,-0.07527 -0.06436,-0.201819 0.0022,-0.343637 0.122182,-0.258546 0.232363,-0.523637 0.329455,-0.794183 0.05455,-0.147273 0.156,-0.224728 0.241091,-0.245455 l 1.58182,-0.384001 c 0.749456,-0.182182 1.362547,-0.817092 1.421457,-1.649456 a 12.13638,12.13638 0 0 0 0,-1.738912 C 23.909513,10.298198 23.296422,9.6632885 22.546966,9.4811064 L 20.965146,9.0971059 C 20.880055,9.0752877 20.777509,8.998924 20.725145,8.851651 A 9.2389217,9.2389217 0 0 0 20.3946,8.0574681 C 20.32914,7.9156498 20.3466,7.7891041 20.3924,7.7138313 L 21.238964,6.3240112 C 21.640419,5.6651012 21.625147,4.7836455 21.0786,4.1530992 20.698964,3.7134622 20.286599,3.3021889 19.848053,2.9214611 19.216416,2.3760058 18.33496,2.3596422 17.677141,2.7610973 L 16.28623,3.6076439 c -0.07527,0.045818 -0.201818,0.064364 -0.343637,-0.00218 A 9.234558,9.234558 0 0 0 15.148411,3.2760071 C 15.001138,3.2214615 14.923683,3.1200069 14.902956,3.0349158 L 14.518955,1.4530955 C 14.336773,0.70363993 13.701863,0.09054819 12.869498,0.03054811 A 12.162562,12.162562 0 0 0 12.000043,2.6129671e-6 Z M 11.247314,1.6636412 a 10.525105,10.525105 0 0 1 1.505457,0 c 0.06,0.00436 0.147273,0.054546 0.176727,0.1745457 l 0.38291,1.5818204 c 0.166909,0.6850918 0.68291,1.1781834 1.279638,1.3941837 0.223637,0.080727 0.441819,0.1712729 0.654547,0.2716367 a 1.9985482,1.9985482 0 0 0 1.890548,-0.080727 l 1.390911,-0.8465466 c 0.105818,-0.065455 0.202909,-0.039273 0.248727,0 0.379637,0.329455 0.735274,0.6850919 1.064729,1.0647288 0.03927,0.045818 0.06546,0.1418183 0,0.2487276 l -0.846547,1.38982 a 1.9985482,1.9985482 0 0 0 -0.08073,1.891639 c 0.100364,0.2127275 0.190909,0.4309097 0.270546,0.6545463 0.216,0.5967282 0.711273,1.1127282 1.394183,1.2785472 l 1.581821,0.385091 c 0.121091,0.02836 0.171273,0.115637 0.175636,0.175637 a 10.53056,10.53056 0 0 1 0,1.505456 c -0.0044,0.06 -0.05455,0.147273 -0.174545,0.176728 l -1.581821,0.382909 a 1.9996391,1.9996391 0 0 0 -1.394183,1.279638 7.5556467,7.5556467 0 0 1 -0.272728,0.654547 1.9985482,1.9985482 0 0 0 0.08182,1.890548 l 0.846547,1.390911 c 0.06546,0.105818 0.03927,0.202909 0,0.248727 a 10.423651,10.423651 0 0 1 -1.064729,1.064729 c -0.04582,0.03927 -0.141818,0.06546 -0.248727,0 L 17.13714,18.994938 a 1.9985482,1.9985482 0 0 0 -1.890548,-0.08073 7.5556467,7.5556467 0 0 1 -0.654547,0.270546 1.9996391,1.9996391 0 0 0 -1.278547,1.394184 l -0.385091,1.58182 c -0.02836,0.121091 -0.115637,0.171273 -0.175637,0.175637 a 10.53056,10.53056 0 0 1 -1.505457,0 c -0.06,-0.0044 -0.147273,-0.05455 -0.176727,-0.174546 l -0.38291,-1.58182 a 1.9996391,1.9996391 0 0 0 -1.2796379,-1.394184 7.5578285,7.5578285 0 0 1 -0.6545463,-0.272728 1.9985482,1.9985482 0 0 0 -1.891639,0.08182 l -1.38982,0.846546 c -0.1058184,0.06546 -0.2029094,0.03927 -0.2487276,0 A 10.429105,10.429105 0 0 1 4.1585774,18.776755 c -0.039273,-0.04582 -0.065455,-0.141818 0,-0.248727 L 5.005124,17.137117 A 1.9985482,1.9985482 0 0 0 5.0858514,15.246569 7.5796467,7.5796467 0 0 1 4.8142147,14.592022 1.9996391,1.9996391 0 0 0 3.4211219,13.313475 L 1.8393015,12.928384 C 1.7182105,12.90002 1.6680286,12.812747 1.6636649,12.752747 a 10.525105,10.525105 0 0 1 0,-1.505456 c 0.00436,-0.06 0.054546,-0.147273 0.1745457,-0.176728 L 3.420031,10.687654 A 1.9996391,1.9996391 0 0 0 4.8142147,9.4080154 7.5818285,7.5818285 0 0 1 5.0858514,8.7534691 1.9985482,1.9985482 0 0 0 5.005124,6.8618301 l -0.8465466,-1.38982 c -0.065455,-0.1058184 -0.039273,-0.2029094 0,-0.2487276 0.329455,-0.3796369 0.6850919,-0.7352738 1.0647288,-1.0647288 0.045818,-0.039273 0.1418183,-0.065455 0.2487276,0 l 1.38982,0.8465466 A 1.9985482,1.9985482 0 0 0 8.7534928,5.0858277 7.5818285,7.5818285 0 0 1 9.4080391,4.814191 1.9996391,1.9996391 0 0 0 10.686586,3.4210982 l 0.385092,-1.5818204 c 0.02836,-0.121091 0.115636,-0.1712729 0.175636,-0.1756366 z"
     id="path943"
     style="stroke-width:1.09091" />
</svg>
