<?xml version="1.0" encoding="UTF-8" standalone="no"?>
<svg
   xmlns:dc="http://purl.org/dc/elements/1.1/"
   xmlns:cc="http://creativecommons.org/ns#"
   xmlns:rdf="http://www.w3.org/1999/02/22-rdf-syntax-ns#"
   xmlns:svg="http://www.w3.org/2000/svg"
   xmlns="http://www.w3.org/2000/svg"
   xmlns:sodipodi="http://sodipodi.sourceforge.net/DTD/sodipodi-0.dtd"
   xmlns:inkscape="http://www.inkscape.org/namespaces/inkscape"
   width="24"
   height="24"
   version="1.1"
   id="svg885"
   sodipodi:docname="folder.svg"
   inkscape:version="1.0.2 (e86c870879, 2021-01-15, custom)"
   inkscape:export-filename="/home/kyoz/Documents/Github/loz/src/assets/icons/tree/folder.png"
   inkscape:export-xdpi="256"
   inkscape:export-ydpi="256">
  <metadata
     id="metadata891">
    <rdf:RDF>
      <cc:Work
         rdf:about="">
        <dc:format>image/svg+xml</dc:format>
        <dc:type
           rdf:resource="http://purl.org/dc/dcmitype/StillImage" />
      </cc:Work>
    </rdf:RDF>
  </metadata>
  <defs
     id="defs889" />
  <sodipodi:namedview
     pagecolor="#ffffff"
     bordercolor="#666666"
     borderopacity="1"
     objecttolerance="10"
     gridtolerance="10"
     guidetolerance="10"
     inkscape:pageopacity="0"
     inkscape:pageshadow="2"
     inkscape:window-width="1902"
     inkscape:window-height="1041"
     id="namedview887"
     showgrid="false"
     inkscape:zoom="17.583333"
     inkscape:cx="4.7140106"
     inkscape:cy="12.739798"
     inkscape:window-x="8"
     inkscape:window-y="29"
     inkscape:window-maximized="0"
     inkscape:current-layer="svg885"
     inkscape:snap-bbox="true"
     inkscape:bbox-paths="true"
     inkscape:bbox-nodes="true"
     inkscape:snap-bbox-edge-midpoints="true"
     inkscape:snap-bbox-midpoints="true"
     inkscape:object-paths="true"
     inkscape:snap-intersection-paths="true"
     inkscape:snap-smooth-nodes="true"
     inkscape:snap-midpoints="true"
     inkscape:snap-object-midpoints="true"
     inkscape:snap-center="true"
     inkscape:snap-text-baseline="true"
     inkscape:snap-page="true"
     inkscape:document-rotation="0" />
  <g
     id="g993">
    <path
       id="path881"
       style="fill:#1e88e5;fill-opacity:1;stroke-width:0.877593"
       d="m 4.759079,4.1005248 c -0.00881,0 -0.016926,0.00307 -0.0257,0.00322 a 1.5357907,1.5357907 0 0 0 -0.2553919,0.024094 c -0.00104,1.913e-4 -0.00218,-1.935e-4 -0.00322,0 -0.022428,0.0042 -0.043783,0.010893 -0.065856,0.016062 a 1.5357907,1.5357907 0 0 0 -0.2264796,0.070674 c -0.014085,0.00572 -0.027888,0.01154 -0.041762,0.017668 a 1.5357907,1.5357907 0 0 0 -0.2039844,0.110824 c -0.020039,0.012769 -0.040037,0.024891 -0.059431,0.03855 a 1.5357907,1.5357907 0 0 0 -0.00322,0.0016 1.5357907,1.5357907 0 0 0 -0.1766862,0.1461677 c -0.013162,0.012629 -0.025844,0.025464 -0.03855,0.03855 -5.239e-4,5.396e-4 -0.00109,0.00107 -0.0016,0.0016 A 1.5357907,1.5357907 0 0 0 3.4997883,4.7606887 c -0.00641,0.00919 -0.013064,0.017975 -0.019274,0.027306 -0.00106,0.0016 -0.00215,0.00322 -0.00322,0.00482 a 1.5357907,1.5357907 0 0 0 -0.1268928,0.2345108 1.5357907,1.5357907 0 0 0 -0.00482,0.00964 c -0.00225,0.0053 -0.00424,0.010737 -0.00642,0.016062 a 1.5357907,1.5357907 0 0 0 -0.078706,0.2537856 c -0.00363,0.016505 -0.00655,0.033094 -0.00964,0.049793 a 1.5357907,1.5357907 0 0 0 -0.027306,0.2569981 c -1.131e-4,0.00767 -0.0016,0.014785 -0.0016,0.022488 V 18.363919 a 1.536044,1.536044 0 0 0 0.00482,0.09316 1.536044,1.536044 0 0 0 0.043368,0.279486 1.536044,1.536044 0 0 0 0.0257,0.09156 1.536044,1.536044 0 0 0 0.1574114,0.342129 1.536044,1.536044 0 0 0 0.1702612,0.226479 1.536044,1.536044 0 0 0 0.065856,0.06746 1.536044,1.536044 0 0 0 0.070675,0.06425 1.536044,1.536044 0 0 0 0.073887,0.05943 1.536044,1.536044 0 0 0 0.077099,0.05462 1.536044,1.536044 0 0 0 0.078706,0.0498 1.536044,1.536044 0 0 0 0.083524,0.04498 1.536044,1.536044 0 0 0 0.1750801,0.07388 1.536044,1.536044 0 0 0 0.1815048,0.0514 1.536044,1.536044 0 0 0 0.091556,0.01767 1.536044,1.536044 0 0 0 0.094768,0.01124 1.536044,1.536044 0 0 0 0.091556,0.0064 1.536044,1.536044 0 0 0 0.00322,0 1.536044,1.536044 0 0 0 0.048187,0.0016 h 14.481833 a 1.536044,1.536044 0 0 0 0.464203,-0.07388 1.536044,1.536044 0 0 0 0.08995,-0.03052 1.536044,1.536044 0 0 0 0.08674,-0.03694 1.536044,1.536044 0 0 0 0.08352,-0.04176 1.536044,1.536044 0 0 0 0.08192,-0.04818 1.536044,1.536044 0 0 0 0.0787,-0.0514 1.536044,1.536044 0 0 0 0.0755,-0.05622 1.536044,1.536044 0 0 0 0.45296,-0.59752 1.536044,1.536044 0 0 0 0.03374,-0.08834 1.536044,1.536044 0 0 0 0.06906,-0.274666 1.536044,1.536044 0 0 0 0.02088,-0.236117 V 8.2157068 c 0,-0.00767 -0.0015,-0.014843 -0.0016,-0.022487 a 1.5357907,1.5357907 0 0 0 -0.0273,-0.2602106 1.5357907,1.5357907 0 0 0 0,-0.00322 c -0.0031,-0.016783 -0.0076,-0.033208 -0.01124,-0.049794 a 1.5357907,1.5357907 0 0 0 -0.0755,-0.2425419 c -0.0058,-0.01409 -0.01154,-0.027885 -0.01767,-0.041762 a 1.5357907,1.5357907 0 0 0 -0.12048,-0.220047 c -0.0077,-0.011745 -0.01447,-0.023819 -0.02248,-0.035337 A 1.5357907,1.5357907 0 0 0 20.337982,7.1411336 c -0.0069,-0.00706 -0.01384,-0.013954 -0.02088,-0.020881 -0.0021,-0.00212 -0.0043,-0.00431 -0.0064,-0.00642 a 1.5357907,1.5357907 0 0 0 -0.205599,-0.1670488 1.5357907,1.5357907 0 0 0 -0.0049,-0.00482 c -0.0031,-0.00214 -0.0065,-0.00431 -0.0096,-0.00642 a 1.5357907,1.5357907 0 0 0 -0.242542,-0.1301053 1.5357907,1.5357907 0 0 0 -0.0096,-0.00642 c -0.0042,-0.00177 -0.0086,-0.00308 -0.01285,-0.00482 a 1.5357907,1.5357907 0 0 0 -0.265029,-0.080312 c -0.0075,-0.00159 -0.01494,-0.00334 -0.02248,-0.00482 a 1.5357907,1.5357907 0 0 0 -0.297154,-0.030518 h -7.433671 a 0.21939867,0.21939867 0 0 1 -0.0016,0 0.21943486,0.21943486 0 0 1 -0.03374,-0.0016 0.21939867,0.21939867 0 0 1 -0.0016,0 0.21943486,0.21943486 0 0 1 -0.03373,-0.00964 0.21939867,0.21939867 0 0 1 -0.03374,-0.014456 0.21943486,0.21943486 0 0 1 -0.05622,-0.041762 0.21939867,0.21939867 0 0 1 -0.02248,-0.027306 v -0.0016 L 10.392156,4.7735386 a 1.5366682,1.5366682 0 0 0 0,-0.0016 c -0.0024,-0.00351 -0.0056,-0.00615 -0.0081,-0.00964 A 1.5366682,1.5366682 0 0 0 10.159223,4.5052992 c -0.011,-0.010082 -0.02246,-0.019172 -0.03373,-0.028912 a 1.5366682,1.5366682 0 0 0 -0.2826977,-0.1943548 1.5366682,1.5366682 0 0 0 -0.00322,-0.00322 c -0.00211,-0.00111 -0.00432,-0.00211 -0.00642,-0.00322 A 1.5366682,1.5366682 0 0 0 9.5119375,4.1519245 c -0.010747,-0.00283 -0.021305,-0.00544 -0.032125,-0.00803 -5.135e-4,-1.231e-4 -0.00109,1.226e-4 -0.0016,0 A 1.5366682,1.5366682 0 0 0 9.1376839,4.1021311 c -0.00546,-5.79e-5 -0.01059,-0.00161 -0.016062,-0.00161 z" />
  </g>
</svg>
