<?xml version="1.0" encoding="UTF-8" standalone="no"?>
<svg
   xmlns:dc="http://purl.org/dc/elements/1.1/"
   xmlns:cc="http://creativecommons.org/ns#"
   xmlns:rdf="http://www.w3.org/1999/02/22-rdf-syntax-ns#"
   xmlns:svg="http://www.w3.org/2000/svg"
   xmlns="http://www.w3.org/2000/svg"
   xmlns:sodipodi="http://sodipodi.sourceforge.net/DTD/sodipodi-0.dtd"
   xmlns:inkscape="http://www.inkscape.org/namespaces/inkscape"
   viewBox="0 0 24 24"
   width="24"
   height="24"
   version="1.1"
   id="svg867"
   sodipodi:docname="note.svg"
   inkscape:version="1.0.2 (e86c870879, 2021-01-15, custom)"
   inkscape:export-filename="/home/kyoz/Documents/Github/loz/src/assets/icons/tree/note.png"
   inkscape:export-xdpi="256"
   inkscape:export-ydpi="256">
  <metadata
     id="metadata873">
    <rdf:RDF>
      <cc:Work
         rdf:about="">
        <dc:format>image/svg+xml</dc:format>
        <dc:type
           rdf:resource="http://purl.org/dc/dcmitype/StillImage" />
      </cc:Work>
    </rdf:RDF>
  </metadata>
  <defs
     id="defs871" />
  <sodipodi:namedview
     pagecolor="#ffffff"
     bordercolor="#666666"
     borderopacity="1"
     objecttolerance="10"
     gridtolerance="10"
     guidetolerance="10"
     inkscape:pageopacity="0"
     inkscape:pageshadow="2"
     inkscape:window-width="1902"
     inkscape:window-height="1041"
     id="namedview869"
     showgrid="false"
     inkscape:zoom="24.866589"
     inkscape:cx="9.6678403"
     inkscape:cy="13.048294"
     inkscape:window-x="8"
     inkscape:window-y="29"
     inkscape:window-maximized="0"
     inkscape:current-layer="svg867"
     inkscape:document-rotation="0" />
  <path
     id="path875"
     d="m 6.3299958,7.0214597 c -0.5343634,0 -0.9680495,0.4336861 -0.9680495,0.9680495 V 16.01049 a 0.96804949,0.96804949 0 0 0 0.9680495,0.96805 H 17.670004 a 0.96804949,0.96804949 0 0 0 0.96805,-0.96805 V 7.9895092 c 0,-0.5343634 -0.433686,-0.9680495 -0.96805,-0.9680495 z"
     style="fill:#ffffff;stroke-width:0.553171" />
  <path
     fill-rule="evenodd"
     d="m 5.3619463,7.9895092 c 0,-0.5343634 0.4336861,-0.9680495 0.9680495,-0.9680495 H 17.670004 c 0.534364,0 0.96805,0.4336861 0.96805,0.9680495 V 16.01049 a 0.96804949,0.96804949 0 0 1 -0.96805,0.96805 H 6.3299958 A 0.96804949,0.96804949 0 0 1 5.3619463,16.01049 Z M 6.3299958,7.8512164 A 0.13829278,0.13829278 0 0 0 6.191703,7.9895092 V 16.01049 c 0,0.07634 0.061955,0.138293 0.1382928,0.138293 H 17.670004 A 0.13829278,0.13829278 0 0 0 17.808297,16.01049 V 7.9895092 A 0.13829278,0.13829278 0 0 0 17.670004,7.8512164 Z"
     id="path863"
     style="fill:#818181;fill-opacity:1;stroke-width:0.553171" />
  <path
     fill-rule="evenodd"
     d="M 8.127802,10.202194 A 0.41487836,0.41487836 0 0 1 8.5426804,9.7873153 h 6.3614686 a 0.41487839,0.41487839 0 0 1 0,0.8297567 H 8.5426804 A 0.41487836,0.41487836 0 0 1 8.127802,10.202194 Z m 0,2.212684 A 0.41487836,0.41487836 0 0 1 8.5426804,12 h 3.0424416 a 0.4148785,0.4148785 0 0 1 0,0.829757 H 8.5426804 A 0.41487836,0.41487836 0 0 1 8.127802,12.414878 Z"
     id="path865"
     style="fill:#818181;fill-opacity:1;stroke-width:0.553171" />
</svg>
